<mxfile host="app.diagrams.net" modified="2024-01-15T07:04:14.487Z" agent="Mozilla/5.0 (Windows NT 10.0; Win64; x64) AppleWebKit/537.36 (KHTML, like Gecko) Chrome/120.0.0.0 Safari/537.36" etag="EGaY46gDdEx1bjj9NiLZ" version="22.1.18" type="github">
  <diagram id="07fea595-8f29-1299-0266-81d95cde20df" name="Page-1">
    <mxGraphModel dx="6493" dy="1133" grid="0" gridSize="10" guides="1" tooltips="1" connect="1" arrows="1" fold="1" page="0" pageScale="1" pageWidth="1169" pageHeight="827" background="#cfc9c9" math="0" shadow="1">
      <root>
        <mxCell id="0" />
        <mxCell id="1" parent="0" />
        <mxCell id="ETCpS2XrUxQC1pRWV7Yo-663" style="edgeStyle=orthogonalEdgeStyle;rounded=0;orthogonalLoop=1;jettySize=auto;html=1;exitX=1;exitY=0.5;exitDx=0;exitDy=0;entryX=0;entryY=0.5;entryDx=0;entryDy=0;fillColor=#008a00;strokeColor=#005700;strokeWidth=8;" parent="1" source="644" target="647" edge="1">
          <mxGeometry relative="1" as="geometry" />
        </mxCell>
        <mxCell id="A2DpdrSwpg6LscgXdFTw-697" style="edgeStyle=orthogonalEdgeStyle;rounded=0;orthogonalLoop=1;jettySize=auto;html=1;exitX=0.5;exitY=1;exitDx=0;exitDy=0;fillColor=#008a00;strokeColor=#005700;strokeWidth=6;" parent="1" source="644" target="A2DpdrSwpg6LscgXdFTw-696" edge="1">
          <mxGeometry relative="1" as="geometry" />
        </mxCell>
        <mxCell id="644" value="&lt;span style=&quot;font-size: 30px;&quot;&gt;&lt;b style=&quot;&quot;&gt;&lt;font color=&quot;#33001a&quot;&gt;CACHE AREA&lt;/font&gt;&lt;/b&gt;&lt;/span&gt;" style="shape=hexagon;perimeter=hexagonPerimeter2;whiteSpace=wrap;html=1;shadow=0;labelBackgroundColor=none;strokeColor=#d6b656;fillColor=#fff2cc;fontFamily=Comic Sans MS;fontSize=23;align=center;strokeWidth=3;" parent="1" vertex="1">
          <mxGeometry x="569.9989473684211" y="2514.998245614034" width="311.84210526315786" height="259.86842105263156" as="geometry" />
        </mxCell>
        <mxCell id="A2DpdrSwpg6LscgXdFTw-705" value="" style="edgeStyle=orthogonalEdgeStyle;rounded=0;orthogonalLoop=1;jettySize=auto;html=1;fillColor=#008a00;strokeColor=#005700;strokeWidth=6;" parent="1" source="647" target="A2DpdrSwpg6LscgXdFTw-704" edge="1">
          <mxGeometry relative="1" as="geometry" />
        </mxCell>
        <mxCell id="647" value="&amp;nbsp;BACKUP AREA" style="shape=hexagon;perimeter=hexagonPerimeter2;whiteSpace=wrap;html=1;shadow=0;labelBackgroundColor=none;strokeColor=#6c8ebf;fillColor=#dae8fc;fontFamily=Comic Sans MS;fontSize=29;align=center;strokeWidth=3;fontStyle=1" parent="1" vertex="1">
          <mxGeometry x="1508.0778947368422" y="2514.999561403509" width="311.84210526315786" height="259.86842105263156" as="geometry" />
        </mxCell>
        <mxCell id="ETCpS2XrUxQC1pRWV7Yo-662" style="edgeStyle=orthogonalEdgeStyle;rounded=0;orthogonalLoop=1;jettySize=auto;html=1;exitX=1;exitY=0.5;exitDx=0;exitDy=0;entryX=0;entryY=0.5;entryDx=0;entryDy=0;fillColor=#008a00;strokeColor=#005700;strokeWidth=8;" parent="1" source="651" target="644" edge="1">
          <mxGeometry relative="1" as="geometry" />
        </mxCell>
        <mxCell id="651" value="RECEPTION AREA" style="shape=hexagon;perimeter=hexagonPerimeter2;whiteSpace=wrap;html=1;shadow=0;labelBackgroundColor=none;strokeColor=#6c8ebf;fillColor=#dae8fc;fontFamily=Comic Sans MS;fontSize=30;align=center;strokeWidth=3;fontStyle=1" parent="1" vertex="1">
          <mxGeometry x="-237.9999999999999" y="2514.9995614035083" width="311.84210526315786" height="259.86842105263156" as="geometry" />
        </mxCell>
        <mxCell id="ETCpS2XrUxQC1pRWV7Yo-661" style="edgeStyle=orthogonalEdgeStyle;rounded=0;orthogonalLoop=1;jettySize=auto;html=1;exitX=0.5;exitY=1;exitDx=0;exitDy=0;endArrow=classic;endFill=1;strokeWidth=8;fillColor=#60a917;strokeColor=#2D7600;entryX=0.5;entryY=0;entryDx=0;entryDy=0;" parent="1" source="ETCpS2XrUxQC1pRWV7Yo-657" target="651" edge="1">
          <mxGeometry relative="1" as="geometry">
            <mxPoint x="-88" y="2498" as="targetPoint" />
            <Array as="points" />
          </mxGeometry>
        </mxCell>
        <mxCell id="A2DpdrSwpg6LscgXdFTw-720" style="edgeStyle=orthogonalEdgeStyle;rounded=0;orthogonalLoop=1;jettySize=auto;html=1;exitX=1;exitY=0.5;exitDx=0;exitDy=0;entryX=0;entryY=0.5;entryDx=0;entryDy=0;curved=1;fillColor=#008a00;strokeColor=#005700;strokeWidth=6;" parent="1" source="ETCpS2XrUxQC1pRWV7Yo-657" target="644" edge="1">
          <mxGeometry relative="1" as="geometry" />
        </mxCell>
        <mxCell id="ETCpS2XrUxQC1pRWV7Yo-657" value="&lt;font style=&quot;font-size: 38px;&quot;&gt;SJZX&lt;/font&gt;" style="ellipse;whiteSpace=wrap;html=1;fillColor=#d5e8d4;strokeColor=#82b366;fontFamily=Comic Sans MS;fontSize=38;fontStyle=1" parent="1" vertex="1">
          <mxGeometry x="-220" y="2077" width="269.92" height="170.5" as="geometry" />
        </mxCell>
        <mxCell id="ETCpS2XrUxQC1pRWV7Yo-725" style="edgeStyle=orthogonalEdgeStyle;rounded=0;orthogonalLoop=1;jettySize=auto;html=1;exitX=0.5;exitY=1;exitDx=0;exitDy=0;entryX=0.5;entryY=0;entryDx=0;entryDy=0;fillColor=#008a00;strokeColor=#005700;strokeWidth=8;" parent="1" source="ETCpS2XrUxQC1pRWV7Yo-664" target="ETCpS2XrUxQC1pRWV7Yo-724" edge="1">
          <mxGeometry relative="1" as="geometry" />
        </mxCell>
        <mxCell id="ETCpS2XrUxQC1pRWV7Yo-664" value="&lt;font style=&quot;font-size: 62px;&quot;&gt;Kafka&lt;/font&gt;" style="rounded=1;whiteSpace=wrap;html=1;fillColor=#e1d5e7;strokeColor=#9673a6;fontFamily=Comic Sans MS;strokeWidth=0;" parent="1" vertex="1">
          <mxGeometry x="540.92" y="3250" width="370" height="140" as="geometry" />
        </mxCell>
        <mxCell id="A2DpdrSwpg6LscgXdFTw-714" style="edgeStyle=orthogonalEdgeStyle;rounded=0;orthogonalLoop=1;jettySize=auto;html=1;exitX=0.5;exitY=0;exitDx=0;exitDy=0;exitPerimeter=0;entryX=0.5;entryY=1;entryDx=0;entryDy=0;dashed=1;fillColor=#008a00;strokeColor=#005700;strokeWidth=6;" parent="1" source="A2DpdrSwpg6LscgXdFTw-716" target="A2DpdrSwpg6LscgXdFTw-704" edge="1">
          <mxGeometry relative="1" as="geometry" />
        </mxCell>
        <mxCell id="A2DpdrSwpg6LscgXdFTw-722" style="edgeStyle=orthogonalEdgeStyle;rounded=0;orthogonalLoop=1;jettySize=auto;html=1;exitX=1;exitY=0.5;exitDx=0;exitDy=0;exitPerimeter=0;entryX=0;entryY=0.5;entryDx=0;entryDy=0;dashed=1;fillColor=#008a00;strokeColor=#005700;strokeWidth=6;" parent="1" source="ETCpS2XrUxQC1pRWV7Yo-666" target="ETCpS2XrUxQC1pRWV7Yo-679" edge="1">
          <mxGeometry relative="1" as="geometry" />
        </mxCell>
        <mxCell id="A2DpdrSwpg6LscgXdFTw-730" style="edgeStyle=orthogonalEdgeStyle;rounded=0;orthogonalLoop=1;jettySize=auto;html=1;exitX=0;exitY=0;exitDx=0;exitDy=65;exitPerimeter=0;entryX=0.75;entryY=1;entryDx=0;entryDy=0;curved=1;fillColor=#008a00;strokeColor=#005700;strokeWidth=6;dashed=1;" parent="1" source="ETCpS2XrUxQC1pRWV7Yo-666" target="A2DpdrSwpg6LscgXdFTw-692" edge="1">
          <mxGeometry relative="1" as="geometry" />
        </mxCell>
        <mxCell id="ETCpS2XrUxQC1pRWV7Yo-666" value="&lt;font style=&quot;font-size: 55px;&quot; face=&quot;Comic Sans MS&quot;&gt;CK&lt;/font&gt;" style="shape=cylinder3;whiteSpace=wrap;html=1;boundedLbl=1;backgroundOutline=1;size=15;fillColor=#b1ddf0;strokeColor=#10739e;" parent="1" vertex="1">
          <mxGeometry x="1586" y="3549" width="156" height="230" as="geometry" />
        </mxCell>
        <mxCell id="ETCpS2XrUxQC1pRWV7Yo-679" value="&lt;font size=&quot;1&quot; face=&quot;Comic Sans MS&quot; style=&quot;&quot;&gt;&lt;b style=&quot;font-size: 35px;&quot;&gt;DataCountInterface&lt;/b&gt;&lt;/font&gt;" style="rounded=0;whiteSpace=wrap;html=1;fillColor=#bac8d3;strokeColor=#23445d;" parent="1" vertex="1">
          <mxGeometry x="2305" y="3596" width="363" height="128" as="geometry" />
        </mxCell>
        <mxCell id="ETCpS2XrUxQC1pRWV7Yo-716" value="FTP" style="text;html=1;align=center;verticalAlign=middle;resizable=0;points=[];autosize=1;strokeColor=none;fillColor=none;fontSize=35;fontFamily=Comic Sans MS;fontStyle=1" parent="1" vertex="1">
          <mxGeometry x="-5" y="2321" width="82" height="54" as="geometry" />
        </mxCell>
        <mxCell id="ETCpS2XrUxQC1pRWV7Yo-717" value="Upload" style="text;html=1;align=center;verticalAlign=middle;resizable=0;points=[];autosize=1;strokeColor=none;fillColor=none;fontSize=35;fontFamily=Comic Sans MS;fontStyle=1" parent="1" vertex="1">
          <mxGeometry x="751" y="2342" width="131" height="54" as="geometry" />
        </mxCell>
        <mxCell id="ETCpS2XrUxQC1pRWV7Yo-719" value="Mv Topics Path" style="text;html=1;align=center;verticalAlign=middle;resizable=0;points=[];autosize=1;strokeColor=none;fillColor=none;fontSize=32;fontFamily=Comic Sans MS;fontStyle=1" parent="1" vertex="1">
          <mxGeometry x="155" y="2569" width="255" height="50" as="geometry" />
        </mxCell>
        <mxCell id="ETCpS2XrUxQC1pRWV7Yo-720" value="Add Done Suffix" style="text;html=1;align=center;verticalAlign=middle;resizable=0;points=[];autosize=1;strokeColor=none;fillColor=none;fontSize=31;fontFamily=Comic Sans MS;fontStyle=1" parent="1" vertex="1">
          <mxGeometry x="999" y="2579" width="272" height="49" as="geometry" />
        </mxCell>
        <mxCell id="ETCpS2XrUxQC1pRWV7Yo-721" value="Push" style="text;html=1;align=center;verticalAlign=middle;resizable=0;points=[];autosize=1;strokeColor=none;fillColor=none;fontSize=35;fontFamily=Comic Sans MS;fontStyle=1" parent="1" vertex="1">
          <mxGeometry x="801" y="3122" width="92" height="54" as="geometry" />
        </mxCell>
        <mxCell id="ETCpS2XrUxQC1pRWV7Yo-723" value="Shell Count &lt;br style=&quot;font-size: 32px;&quot;&gt;FileName and Num&lt;br style=&quot;font-size: 32px;&quot;&gt;by Date&amp;nbsp;" style="text;html=1;align=center;verticalAlign=middle;resizable=0;points=[];autosize=1;strokeColor=none;fillColor=none;fontSize=32;fontFamily=Comic Sans MS;fontStyle=1" parent="1" vertex="1">
          <mxGeometry x="1907" y="2836" width="308" height="127" as="geometry" />
        </mxCell>
        <mxCell id="ETCpS2XrUxQC1pRWV7Yo-724" value="&lt;font style=&quot;font-size: 62px;&quot;&gt;Flink&lt;/font&gt;" style="rounded=1;whiteSpace=wrap;html=1;fillColor=#e1d5e7;strokeColor=#9673a6;fontFamily=Comic Sans MS;" parent="1" vertex="1">
          <mxGeometry x="540.92" y="3596" width="370" height="140" as="geometry" />
        </mxCell>
        <mxCell id="ETCpS2XrUxQC1pRWV7Yo-726" value="Consumer" style="text;html=1;align=center;verticalAlign=middle;resizable=0;points=[];autosize=1;strokeColor=none;fillColor=none;fontSize=35;fontFamily=Comic Sans MS;fontStyle=1" parent="1" vertex="1">
          <mxGeometry x="744" y="3466" width="175" height="54" as="geometry" />
        </mxCell>
        <mxCell id="ETCpS2XrUxQC1pRWV7Yo-727" style="edgeStyle=orthogonalEdgeStyle;rounded=0;orthogonalLoop=1;jettySize=auto;html=1;exitX=1;exitY=0.5;exitDx=0;exitDy=0;entryX=0;entryY=0.5;entryDx=0;entryDy=0;entryPerimeter=0;fillColor=#008a00;strokeColor=#005700;strokeWidth=8;" parent="1" source="ETCpS2XrUxQC1pRWV7Yo-724" target="ETCpS2XrUxQC1pRWV7Yo-666" edge="1">
          <mxGeometry relative="1" as="geometry" />
        </mxCell>
        <mxCell id="ETCpS2XrUxQC1pRWV7Yo-730" value="Sink" style="text;html=1;align=center;verticalAlign=middle;resizable=0;points=[];autosize=1;strokeColor=none;fillColor=none;fontSize=35;fontFamily=Comic Sans MS;fontStyle=1" parent="1" vertex="1">
          <mxGeometry x="1145" y="3682" width="89" height="54" as="geometry" />
        </mxCell>
        <mxCell id="A2DpdrSwpg6LscgXdFTw-667" value="Crontab" style="text;html=1;align=center;verticalAlign=middle;resizable=0;points=[];autosize=1;strokeColor=none;fillColor=none;fontSize=26;fontFamily=Comic Sans MS;fontStyle=1" parent="1" vertex="1">
          <mxGeometry x="1769" y="2943.5" width="116" height="43" as="geometry" />
        </mxCell>
        <mxCell id="A2DpdrSwpg6LscgXdFTw-669" style="edgeStyle=orthogonalEdgeStyle;rounded=0;orthogonalLoop=1;jettySize=auto;html=1;endArrow=classic;endFill=1;strokeWidth=8;fillColor=#60a917;strokeColor=#2D7600;" parent="1" edge="1">
          <mxGeometry relative="1" as="geometry">
            <mxPoint x="717" y="2250" as="sourcePoint" />
            <mxPoint x="717.46" y="2522" as="targetPoint" />
            <Array as="points">
              <mxPoint x="717.46" y="2336.5" />
              <mxPoint x="717.46" y="2336.5" />
            </Array>
          </mxGeometry>
        </mxCell>
        <mxCell id="A2DpdrSwpg6LscgXdFTw-675" style="edgeStyle=orthogonalEdgeStyle;rounded=0;orthogonalLoop=1;jettySize=auto;html=1;exitX=1;exitY=0.5;exitDx=0;exitDy=0;entryX=0;entryY=0.5;entryDx=0;entryDy=0;fillColor=#008a00;strokeColor=#005700;strokeWidth=6;" parent="1" source="A2DpdrSwpg6LscgXdFTw-671" target="A2DpdrSwpg6LscgXdFTw-673" edge="1">
          <mxGeometry relative="1" as="geometry" />
        </mxCell>
        <mxCell id="A2DpdrSwpg6LscgXdFTw-671" value="&lt;font style=&quot;font-size: 38px;&quot;&gt;kafka&lt;/font&gt;" style="ellipse;whiteSpace=wrap;html=1;fillColor=#d5e8d4;strokeColor=#82b366;fontFamily=Comic Sans MS;fontSize=38;fontStyle=1" parent="1" vertex="1">
          <mxGeometry x="-911" y="3230.5" width="288" height="179" as="geometry" />
        </mxCell>
        <mxCell id="A2DpdrSwpg6LscgXdFTw-676" style="edgeStyle=orthogonalEdgeStyle;rounded=0;orthogonalLoop=1;jettySize=auto;html=1;exitX=1;exitY=0.5;exitDx=0;exitDy=0;fillColor=#008a00;strokeColor=#005700;strokeWidth=6;" parent="1" source="A2DpdrSwpg6LscgXdFTw-673" target="ETCpS2XrUxQC1pRWV7Yo-664" edge="1">
          <mxGeometry relative="1" as="geometry" />
        </mxCell>
        <mxCell id="A2DpdrSwpg6LscgXdFTw-673" value="&lt;span style=&quot;font-size: 62px;&quot;&gt;Flume&lt;/span&gt;" style="rounded=1;whiteSpace=wrap;html=1;fillColor=#e3c800;strokeColor=#B09500;fontFamily=Comic Sans MS;fontColor=#000000;" parent="1" vertex="1">
          <mxGeometry x="-290.00000000000006" y="3249" width="370" height="140" as="geometry" />
        </mxCell>
        <mxCell id="A2DpdrSwpg6LscgXdFTw-674" value="&lt;h1 style=&quot;box-sizing: border-box; border-width: 0px; border-style: solid; border-color: rgb(229, 231, 235); --tw-border-spacing-x: 0; --tw-border-spacing-y: 0; --tw-translate-x: 0; --tw-translate-y: 0; --tw-rotate: 0; --tw-skew-x: 0; --tw-skew-y: 0; --tw-scale-x: 1; --tw-scale-y: 1; --tw-pan-x: ; --tw-pan-y: ; --tw-pinch-zoom: ; --tw-scroll-snap-strictness: proximity; --tw-gradient-from-position: ; --tw-gradient-via-position: ; --tw-gradient-to-position: ; --tw-ordinal: ; --tw-slashed-zero: ; --tw-numeric-figure: ; --tw-numeric-spacing: ; --tw-numeric-fraction: ; --tw-ring-inset: ; --tw-ring-offset-width: 0px; --tw-ring-offset-color: #fff; --tw-ring-color: rgb(59 130 246 / .5); --tw-ring-offset-shadow: 0 0 #0000; --tw-ring-shadow: 0 0 #0000; --tw-shadow: 0 0 #0000; --tw-shadow-colored: 0 0 #0000; --tw-blur: ; --tw-brightness: ; --tw-contrast: ; --tw-grayscale: ; --tw-hue-rotate: ; --tw-invert: ; --tw-saturate: ; --tw-sepia: ; --tw-drop-shadow: ; --tw-backdrop-blur: ; --tw-backdrop-brightness: ; --tw-backdrop-contrast: ; --tw-backdrop-grayscale: ; --tw-backdrop-hue-rotate: ; --tw-backdrop-invert: ; --tw-backdrop-opacity: ; --tw-backdrop-saturate: ; --tw-backdrop-sepia: ; font-size: 2.25rem; margin: 0px 0px 0.5rem; line-height: 2.5rem; text-align: start;&quot; class=&quot;mb-0.5 text-2xl font-bold sm:mb-2 sm:text-4xl&quot;&gt;&lt;font face=&quot;Comic Sans MS&quot;&gt;Backend&lt;/font&gt;&lt;/h1&gt;" style="ellipse;whiteSpace=wrap;html=1;fillColor=#d5e8d4;strokeColor=#82b366;fontFamily=Comic Sans MS;fontSize=38;fontStyle=1" parent="1" vertex="1">
          <mxGeometry x="584" y="2077" width="269.92" height="170.5" as="geometry" />
        </mxCell>
        <mxCell id="A2DpdrSwpg6LscgXdFTw-677" value="Topics&amp;nbsp;" style="text;html=1;align=center;verticalAlign=middle;resizable=0;points=[];autosize=1;strokeColor=none;fillColor=none;fontSize=32;fontFamily=Comic Sans MS;fontStyle=1" parent="1" vertex="1">
          <mxGeometry x="-542" y="3251" width="130" height="50" as="geometry" />
        </mxCell>
        <mxCell id="A2DpdrSwpg6LscgXdFTw-678" value="Topics&amp;nbsp;" style="text;html=1;align=center;verticalAlign=middle;resizable=0;points=[];autosize=1;strokeColor=none;fillColor=none;fontSize=32;fontFamily=Comic Sans MS;fontStyle=1" parent="1" vertex="1">
          <mxGeometry x="245" y="3259" width="130" height="50" as="geometry" />
        </mxCell>
        <mxCell id="A2DpdrSwpg6LscgXdFTw-729" style="edgeStyle=orthogonalEdgeStyle;rounded=0;orthogonalLoop=1;jettySize=auto;html=1;exitX=0.5;exitY=1;exitDx=0;exitDy=0;entryX=1;entryY=0.5;entryDx=0;entryDy=0;curved=1;fillColor=#008a00;strokeColor=#005700;strokeWidth=6;" parent="1" source="A2DpdrSwpg6LscgXdFTw-692" target="ETCpS2XrUxQC1pRWV7Yo-664" edge="1">
          <mxGeometry relative="1" as="geometry" />
        </mxCell>
        <mxCell id="A2DpdrSwpg6LscgXdFTw-692" value="&lt;ul style=&quot;font-size: 25px;&quot;&gt;&lt;li&gt;&lt;font face=&quot;Comic Sans MS&quot; style=&quot;font-size: 25px;&quot;&gt;timestamp&lt;/font&gt;&lt;/li&gt;&lt;li&gt;&lt;font face=&quot;Comic Sans MS&quot; style=&quot;font-size: 25px;&quot;&gt;topic&lt;/font&gt;&lt;/li&gt;&lt;li&gt;&lt;font face=&quot;Comic Sans MS&quot; style=&quot;font-size: 25px;&quot;&gt;file_name&lt;/font&gt;&lt;/li&gt;&lt;li&gt;&lt;font face=&quot;Comic Sans MS&quot; style=&quot;font-size: 25px;&quot;&gt;file_line&lt;/font&gt;&lt;/li&gt;&lt;li&gt;&lt;font face=&quot;Comic Sans MS&quot; style=&quot;font-size: 25px;&quot;&gt;start_count&lt;/font&gt;&lt;/li&gt;&lt;/ul&gt;" style="text;strokeColor=#b85450;fillColor=#f8cecc;html=1;whiteSpace=wrap;verticalAlign=middle;overflow=hidden;strokeWidth=0;" parent="1" vertex="1">
          <mxGeometry x="989" y="3004.5" width="234" height="181.5" as="geometry" />
        </mxCell>
        <mxCell id="A2DpdrSwpg6LscgXdFTw-695" value="&lt;span style=&quot;font-size: 31px;&quot;&gt;ods_file_line&lt;/span&gt;" style="rounded=1;whiteSpace=wrap;html=1;fillColor=#fff2cc;strokeColor=#d6b656;fontFamily=Comic Sans MS;fontSize=31;" parent="1" vertex="1">
          <mxGeometry x="989" y="2956.5" width="231" height="48" as="geometry" />
        </mxCell>
        <mxCell id="A2DpdrSwpg6LscgXdFTw-699" style="edgeStyle=orthogonalEdgeStyle;rounded=0;orthogonalLoop=1;jettySize=auto;html=1;exitX=0.5;exitY=1;exitDx=0;exitDy=0;fillColor=#008a00;strokeColor=#005700;strokeWidth=6;" parent="1" source="A2DpdrSwpg6LscgXdFTw-696" target="ETCpS2XrUxQC1pRWV7Yo-664" edge="1">
          <mxGeometry relative="1" as="geometry" />
        </mxCell>
        <mxCell id="A2DpdrSwpg6LscgXdFTw-701" value="" style="edgeStyle=orthogonalEdgeStyle;rounded=0;orthogonalLoop=1;jettySize=auto;html=1;fillColor=#008a00;strokeColor=#005700;strokeWidth=6;" parent="1" source="A2DpdrSwpg6LscgXdFTw-696" edge="1">
          <mxGeometry relative="1" as="geometry">
            <mxPoint x="985.9200000000001" y="2980.4999999999995" as="targetPoint" />
          </mxGeometry>
        </mxCell>
        <mxCell id="A2DpdrSwpg6LscgXdFTw-696" value="&lt;span style=&quot;font-size: 32px;&quot;&gt;&lt;font face=&quot;Comic Sans MS&quot;&gt;&lt;b&gt;Check point 1&lt;/b&gt;&lt;/font&gt;&lt;/span&gt;" style="rounded=1;whiteSpace=wrap;html=1;fillColor=#fff2cc;strokeColor=#d6b656;fontFamily=Comic Sans MS;fontSize=32;" parent="1" vertex="1">
          <mxGeometry x="613.96" y="2943.5" width="223.92" height="74" as="geometry" />
        </mxCell>
        <mxCell id="A2DpdrSwpg6LscgXdFTw-709" value="" style="edgeStyle=orthogonalEdgeStyle;rounded=0;orthogonalLoop=1;jettySize=auto;html=1;fillColor=#008a00;strokeColor=#005700;strokeWidth=6;" parent="1" source="A2DpdrSwpg6LscgXdFTw-704" target="A2DpdrSwpg6LscgXdFTw-708" edge="1">
          <mxGeometry relative="1" as="geometry" />
        </mxCell>
        <mxCell id="A2DpdrSwpg6LscgXdFTw-704" value="&lt;font face=&quot;Comic Sans MS&quot;&gt;Check point 2&lt;/font&gt;" style="rounded=1;whiteSpace=wrap;html=1;fontSize=29;fontFamily=Comic Sans MS;fillColor=#dae8fc;strokeColor=#6c8ebf;shadow=0;labelBackgroundColor=none;strokeWidth=3;fontStyle=1;" parent="1" vertex="1">
          <mxGeometry x="1566.5" y="2956.5" width="195" height="69.8" as="geometry" />
        </mxCell>
        <mxCell id="A2DpdrSwpg6LscgXdFTw-708" value="&lt;span style=&quot;font-weight: normal;&quot;&gt;ods_count&lt;/span&gt;" style="whiteSpace=wrap;html=1;fontSize=29;fontFamily=Comic Sans MS;fillColor=#dae8fc;strokeColor=#6c8ebf;rounded=1;shadow=0;labelBackgroundColor=none;strokeWidth=3;fontStyle=1;" parent="1" vertex="1">
          <mxGeometry x="1909" y="2967.6" width="254" height="47.6" as="geometry" />
        </mxCell>
        <mxCell id="A2DpdrSwpg6LscgXdFTw-712" style="edgeStyle=orthogonalEdgeStyle;rounded=0;orthogonalLoop=1;jettySize=auto;html=1;exitX=0.5;exitY=0;exitDx=0;exitDy=0;" parent="1" edge="1">
          <mxGeometry relative="1" as="geometry">
            <mxPoint x="2001.333333333334" y="3076.3333333333335" as="targetPoint" />
            <mxPoint x="1996" y="3089" as="sourcePoint" />
          </mxGeometry>
        </mxCell>
        <mxCell id="A2DpdrSwpg6LscgXdFTw-713" value="&lt;ul style=&quot;&quot;&gt;&lt;li style=&quot;font-size: 25px;&quot;&gt;&lt;font face=&quot;Comic Sans MS&quot; style=&quot;font-size: 25px;&quot;&gt;timestamp&lt;/font&gt;&lt;/li&gt;&lt;li style=&quot;font-size: 25px;&quot;&gt;&lt;font face=&quot;Comic Sans MS&quot; style=&quot;font-size: 25px;&quot;&gt;topic&lt;/font&gt;&lt;/li&gt;&lt;li style=&quot;font-size: 25px;&quot;&gt;&lt;font face=&quot;Comic Sans MS&quot; style=&quot;font-size: 25px;&quot;&gt;file_count&lt;/font&gt;&lt;/li&gt;&lt;li style=&quot;font-size: 25px;&quot;&gt;&lt;font face=&quot;Comic Sans MS&quot; style=&quot;font-size: 25px;&quot;&gt;last_import_time&lt;/font&gt;&lt;/li&gt;&lt;/ul&gt;" style="text;strokeColor=#b85450;fillColor=#f8cecc;html=1;whiteSpace=wrap;verticalAlign=middle;overflow=hidden;strokeWidth=0;" parent="1" vertex="1">
          <mxGeometry x="1909" y="3015.2" width="255" height="174.8" as="geometry" />
        </mxCell>
        <mxCell id="A2DpdrSwpg6LscgXdFTw-715" style="edgeStyle=orthogonalEdgeStyle;rounded=0;orthogonalLoop=1;jettySize=auto;html=1;exitX=0.5;exitY=1;exitDx=0;exitDy=0;entryX=1;entryY=0;entryDx=0;entryDy=65;entryPerimeter=0;curved=1;fillColor=#008a00;strokeColor=#005700;strokeWidth=6;" parent="1" source="A2DpdrSwpg6LscgXdFTw-713" target="ETCpS2XrUxQC1pRWV7Yo-666" edge="1">
          <mxGeometry relative="1" as="geometry" />
        </mxCell>
        <mxCell id="A2DpdrSwpg6LscgXdFTw-717" value="" style="edgeStyle=orthogonalEdgeStyle;rounded=0;orthogonalLoop=1;jettySize=auto;html=1;exitX=0.5;exitY=0;exitDx=0;exitDy=0;exitPerimeter=0;entryX=0.5;entryY=1;entryDx=0;entryDy=0;dashed=1;fillColor=#008a00;strokeColor=#005700;strokeWidth=6;" parent="1" source="ETCpS2XrUxQC1pRWV7Yo-666" target="A2DpdrSwpg6LscgXdFTw-716" edge="1">
          <mxGeometry relative="1" as="geometry">
            <mxPoint x="1664" y="3549" as="sourcePoint" />
            <mxPoint x="1664" y="3026" as="targetPoint" />
          </mxGeometry>
        </mxCell>
        <mxCell id="A2DpdrSwpg6LscgXdFTw-716" value="last_import_time" style="text;html=1;align=center;verticalAlign=middle;resizable=0;points=[];autosize=1;strokeColor=none;fillColor=none;fontSize=31;fontFamily=Comic Sans MS;fontStyle=1" parent="1" vertex="1">
          <mxGeometry x="1526" y="3271" width="272" height="49" as="geometry" />
        </mxCell>
        <mxCell id="A2DpdrSwpg6LscgXdFTw-721" value="FTP" style="text;html=1;align=center;verticalAlign=middle;resizable=0;points=[];autosize=1;strokeColor=none;fillColor=none;fontSize=35;fontFamily=Comic Sans MS;fontStyle=1" parent="1" vertex="1">
          <mxGeometry x="313" y="2291" width="82" height="54" as="geometry" />
        </mxCell>
        <mxCell id="A2DpdrSwpg6LscgXdFTw-731" value="start_count" style="text;html=1;align=center;verticalAlign=middle;resizable=0;points=[];autosize=1;strokeColor=none;fillColor=none;fontSize=31;fontFamily=Comic Sans MS;fontStyle=1" parent="1" vertex="1">
          <mxGeometry x="1190" y="3492" width="193" height="49" as="geometry" />
        </mxCell>
      </root>
    </mxGraphModel>
  </diagram>
</mxfile>
